<svg width="24" height="24" viewBox="0 0 24 24" fill="none" xmlns="http://www.w3.org/2000/svg">
<path fill-rule="evenodd" clip-rule="evenodd" d="M11.9996 20.0225C7.35982 17.3882 4.76416 14.7625 3.50744 12.4738C2.22425 10.1369 2.3302 8.15446 3.05171 6.73895C4.52988 3.83897 8.73571 2.91113 11.2936 6.14622L11.9995 7.03906L12.7055 6.14626C15.2638 2.91106 19.4699 3.83903 20.948 6.73895C21.6695 8.15444 21.7754 10.1369 20.4921 12.4738C19.2353 14.7625 16.6395 17.3882 11.9996 20.0225ZM11.9996 4.24505C8.5199 0.856104 3.33722 2.21518 1.44802 5.92152C0.419533 7.93927 0.400427 10.5552 1.92965 13.3402C3.44655 16.1027 6.47805 19.0306 11.5642 21.8418L11.9996 22.0824L12.4349 21.8418C17.5213 19.0306 20.5529 16.1027 22.0699 13.3402C23.5992 10.5552 23.5802 7.93929 22.5517 5.92152C20.6625 2.21511 15.4796 0.856151 11.9996 4.24505Z" fill="#262F56"/>
</svg>
